<svg xmlns="http://www.w3.org/2000/svg" width="336" height="100" fill="none" viewBox="0 0 336 100">
  <path fill="#DD7DFF" d="M73.352 82.584c-.299.256-.608.384-.928.384l-2.592-.32c-3.456 0-5.184 1.728-5.184 5.184 0 1.75.523 3.136 1.568 4.16.512.533 1.045.8 1.6.8.533 0 1.504-.245 2.912-.736 1.408-.49 2.155-.736 2.24-.736.576 0 .864.267.864.8 0 .448-.245.832-.736 1.152-2.688 1.13-4.619 1.696-5.792 1.696-.725 0-1.44-.235-2.144-.704a5.061 5.061 0 0 1-1.664-1.824 9.47 9.47 0 0 1-1.248-4.736c0-2.283.683-4.075 2.048-5.376 1.387-1.323 3.136-1.984 5.248-1.984 1.259 0 2.485.203 3.68.608v.032c.384.17.576.427.576.768 0 .277-.15.555-.448.832Zm54.662 6.688c-.618 2.261-.981 3.883-1.088 4.864-.085.533-.469.8-1.152.8-.661 0-.992-.277-.992-.832 0-1.28.619-3.84 1.856-7.68.512-1.685 1.131-3.157 1.856-4.416.662-1.173 1.323-1.76 1.984-1.76.342 0 .64.203.896.608.214.341.672 1.27 1.376 2.784a31.382 31.382 0 0 1 1.696 4.576c.406 1.43.896 3.392 1.472 5.888a.82.82 0 0 1-.288.64 1.02 1.02 0 0 1-.704.256c-.704 0-1.13-.299-1.28-.896l-1.12-4.384c-1.856 0-3.36-.15-4.512-.448Zm3.968-1.696c-.448-1.621-.981-3.083-1.6-4.384-.704 1.173-1.28 2.507-1.728 4 .939.256 2.048.384 3.328.384Zm62.222.352c-.192.213-.448.32-.768.32h-3.968c0 1.963.032 3.733.096 5.312 0 1.003-.331 1.504-.992 1.504s-1.045-.405-1.152-1.216c-.043-.256-.064-1.13-.064-2.624v-5.056c0-2.027-.011-3.221-.032-3.584-.555-.064-.832-.47-.832-1.216 0-.17.096-.384.288-.64.256-.32.512-.48.768-.48.299 0 .779.032 1.44.096.704.064 2.293.096 4.768.096 1.237 0 1.856.341 1.856 1.024 0 .533-.171.843-.512.928-.299.128-.555.192-.768.192-.213.085-.864.128-1.952.128-.747 0-1.717-.032-2.912-.096v3.456h4.16c.213 0 .405.107.576.32.192.213.288.47.288.768 0 .299-.096.555-.288.768Zm57.556-.096-3.2-.032.064 4.192c0 .576-.011.875-.032.896l5.536-.096c.618.064.928.33.928.8 0 .896-.416 1.344-1.248 1.344l-6.272.064c-.534 0-.864-.203-.992-.608-.128-.405-.192-.95-.192-1.632v-5.312a.744.744 0 0 1-.416-.704c0-.277.117-.533.352-.768a119.103 119.103 0 0 1-.096-4.544c0-.79.48-1.195 1.44-1.216h.896l5.6.096h.032c.682.107 1.024.427 1.024.96 0 .405-.128.693-.384.864-.555.299-1.888.448-4 .448-.768 0-1.558-.032-2.368-.096 0 2.005.01 3.083.032 3.232.554.021 2.186.032 4.896.032.661.085.992.384.992.896 0 .256-.107.501-.32.736-.214.235-.448.373-.704.416-.107 0-.278.01-.512.032h-1.056ZM9.3 64c-2 0-2.967-1.033-2.9-3.1v-5.3c0-3.667-.2-9.233-.6-16.7-.4-7.867-.733-12.6-1-14.2-.267-1.667-.4-2.967-.4-3.9 0-.6.433-1.233 1.3-1.9.867-.733 1.767-1.1 2.7-1.1 1.133 0 2.033.6 2.7 1.8 1.4 3.067 2.1 9.467 2.1 19.2 4.533-3.733 7.867-6.767 10-9.1 2.6-2.8 5.167-6.1 7.7-9.9.933-1.4 2.033-2.1 3.3-2.1 2.533 0 3.8.833 3.8 2.5 0 3.2-4.3 9.2-12.9 18 3.6 3.2 7.033 7.4 10.3 12.6 3.267 4.933 4.9 8.067 4.9 9.4 0 1.133-.333 2.033-1 2.7-.667.667-1.5 1-2.5 1-.867 0-1.867-.667-3-2-1.067-1.4-2.633-3.733-4.7-7-1.667-2.8-3.167-5-4.5-6.6-1.4-1.867-3.167-3.667-5.3-5.4a62.793 62.793 0 0 1-5.9 4.7l.3 13.1c0 2.2-1.467 3.3-4.4 3.3Zm44.72-1c-.934.667-1.9 1-2.9 1-1.867 0-2.8-.8-2.8-2.4l.4-40.7c0-.933.3-1.667.9-2.2.666-.6 1.5-.9 2.5-.9s1.833.233 2.5.7c.733.533 1.133 1.333 1.2 2.4.066.733.1 3.167.1 7.3 0 18.2-.134 29.033-.4 32.5-.067.8-.567 1.567-1.5 2.3Zm46.039-43c0 2.733-3.134 4.1-9.4 4.1l-6.6-.2-.2 23.7.1 7.5c.066 1.333.1 3.2.1 5.6 0 .933-.434 1.733-1.3 2.4-.8.6-1.7.9-2.7.9-1.734 0-2.6-.933-2.6-2.8-.2-6.6-.3-12.967-.3-19.1 0-7.333.2-13.3.6-17.9-4.467.333-8.534.5-12.2.5-2.067 0-3.1-.867-3.1-2.6 0-.8.366-1.6 1.1-2.4.8-.8 1.666-1.233 2.6-1.3l31.2-1c1.8.4 2.7 1.267 2.7 2.6Zm42.968 0c0 2.733-3.133 4.1-9.4 4.1l-6.6-.2-.2 23.7.1 7.5c.067 1.333.1 3.2.1 5.6 0 .933-.433 1.733-1.3 2.4-.8.6-1.7.9-2.7.9-1.733 0-2.6-.933-2.6-2.8-.2-6.6-.3-12.967-.3-19.1 0-7.333.2-13.3.6-17.9-4.466.333-8.533.5-12.2.5-2.066 0-3.1-.867-3.1-2.6 0-.8.367-1.6 1.1-2.4.8-.8 1.667-1.233 2.6-1.3l31.2-1c1.8.4 2.7 1.267 2.7 2.6Zm32.569-2c.533-.333.967-.5 1.3-.5 1.733.2 2.6 1 2.6 2.4 0 1.667-.9 3.967-2.7 6.9l-2.6 4-2.4 3.6-1.4 2.1a42.72 42.72 0 0 0-3.1 4.6v8.7c0 6-.2 9.867-.6 11.6-.4 1.733-1.633 2.6-3.7 2.6-.6 0-1.033-.133-1.3-.4-.733-.733-1.1-2.933-1.1-6.6l.1-10.8c0-1.733-.1-3.5-.3-5.3-2.867-3.733-6.6-9.8-11.2-18.2-.2-.333-.3-.7-.3-1.1 0-.467.2-1 .6-1.6.933-1.4 2.067-2.1 3.4-2.1.933 0 3.367 3.367 7.3 10.1 1.6 2.8 2.9 4.933 3.9 6.4l3.8-5.8 3.1-5c2.067-3.2 3.6-5.067 4.6-5.6Zm46.988 7.2c-.933.8-1.9 1.2-2.9 1.2l-8.1-1c-10.8 0-16.2 5.4-16.2 16.2 0 5.467 1.634 9.8 4.9 13 1.6 1.667 3.267 2.5 5 2.5 1.667 0 4.7-.767 9.1-2.3 4.4-1.533 6.734-2.3 7-2.3 1.8 0 2.7.833 2.7 2.5 0 1.4-.766 2.6-2.3 3.6-8.4 3.533-14.433 5.3-18.1 5.3-2.266 0-4.5-.733-6.7-2.2a15.823 15.823 0 0 1-5.2-5.7c-2.6-4.6-3.9-9.533-3.9-14.8 0-7.133 2.134-12.733 6.4-16.8 4.334-4.133 9.8-6.2 16.4-6.2 3.934 0 7.767.633 11.5 1.9v.1c1.2.533 1.8 1.333 1.8 2.4 0 .867-.466 1.733-1.4 2.6Zm20.82 20.9c-1.933 7.067-3.067 12.133-3.4 15.2-.267 1.667-1.467 2.5-3.6 2.5-2.067 0-3.1-.867-3.1-2.6 0-4 1.933-12 5.8-24 1.6-5.267 3.533-9.867 5.8-13.8 2.067-3.667 4.133-5.5 6.2-5.5 1.067 0 2 .633 2.8 1.9.667 1.067 2.1 3.967 4.3 8.7 2.2 4.8 3.967 9.567 5.3 14.3 1.267 4.467 2.8 10.6 4.6 18.4 0 .8-.3 1.467-.9 2-.6.533-1.333.8-2.2.8-2.2 0-3.533-.933-4-2.8l-3.5-13.7c-5.8 0-10.5-.467-14.1-1.4Zm12.4-5.3c-1.4-5.067-3.067-9.633-5-13.7-2.2 3.667-4 7.833-5.4 12.5 2.933.8 6.4 1.2 10.4 1.2ZM313.047 20c0 2.733-3.133 4.1-9.4 4.1l-6.6-.2-.2 23.7.1 7.5c.067 1.333.1 3.2.1 5.6 0 .933-.433 1.733-1.3 2.4-.8.6-1.7.9-2.7.9-1.733 0-2.6-.933-2.6-2.8-.2-6.6-.3-12.967-.3-19.1 0-7.333.2-13.3.6-17.9-4.467.333-8.533.5-12.2.5-2.067 0-3.1-.867-3.1-2.6 0-.8.367-1.6 1.1-2.4.8-.8 1.667-1.233 2.6-1.3l31.2-1c1.8.4 2.7 1.267 2.7 2.6Z"/>
  <path stroke="#DD7DFF" stroke-linecap="round" stroke-linejoin="round" stroke-width="4" d="m189.914 20.86-.851-11.25 9.907 2.673m29.136 5.921.548-9.956-9.813 2.316"/>
  <path fill="#DD7DFF" stroke="#DD7DFF" stroke-linecap="round" d="M321.096 18.931c-.59-.005-1.138.442-1.145 1.077-.007.636.532 1.094 1.123 1.1 2.848.027 5.688.178 8.565.332.365.02.731.04 1.097.058.588.031 1.155-.39 1.194-1.022.038-.636-.479-1.12-1.07-1.15l-1.095-.06h0-.006c-2.867-.153-5.759-.307-8.663-.335Zm12.809-5.28c.611-.156.961-.78.818-1.378a1.122 1.122 0 0 0-1.364-.837l-1.883.479h0l-.005.001c-3.673.933-7.368 1.87-11.025 2.954a1.145 1.145 0 0 0-.766 1.408 1.12 1.12 0 0 0 1.394.784c3.612-1.07 7.263-1.997 10.942-2.93h.001l1.888-.48Zm-7.089-7.176a1.115 1.115 0 0 0 .164-1.562 1.106 1.106 0 0 0-1.561-.164l-8.509 6.933a1.114 1.114 0 0 0-.164 1.561 1.105 1.105 0 0 0 1.56.165l8.51-6.933Z"/>
</svg>
